# xmcd
#
# Track frame offsets: 
#        150
#        15100
#        30597
#        52385
#
# Disc length: 909 seconds
#
# Revision: 0
# Processed by: cddbd v1.5PL3 Copyright (c) Steve Scherf et al.
# Submitted via: ExactAudioCopy v0.95a4
#
DISCID=27038b04
DTITLE=Whatever - Why  (Maxi)
DYEAR=2000
DGENRE=Pop
TTITLE0=Why (Radio Version)
TTITLE1=Why (Smoov Groove Version)
TTITLE2=Why (Nightclub Mix)
TTITLE3=Why (Album Version)
EXTD=
EXTT0=
EXTT1=
EXTT2=
EXTT3=
PLAYORDER=
